# xmcd
#
# Track frame offsets: 
#        150
#        12547
#        27432
#        41520
#        56032
#        70627
#        84657
#        99105
#        111654
#        123100
#        136120
#        147455
#        160420
#
# Disc length: 2221 seconds
#
# Revision: 2
# Processed by: cddbd v1.5.1PL0 Copyright (c) Steve Scherf et al.
# Submitted via: ExactAudioCopy v0.95a5
#
DISCID=b108ab0d
DTITLE=Various Artist - The Copulatin' Collection Volume 1
DYEAR=1995
DGENRE=Risque Blues
TTITLE0=Eddie Johnson and His Crackerjacks - Good Bossom Bread
TTITLE1=Lucille Bogan - Stew Meat Blues
TTITLE2=Clarence Williams - Organ Grinder Blues
TTITLE3=State Street Swingers - Don't Tear My Clothes
TTITLE4=Butterbeans and Suzie - Elevator Papa, Switchboard Mama
TTITLE5=Walter Pichon - Yo Yo
TTITLE6=Tampa Red - When You Were A Girl Of Seven
TTITLE7=Blue Scott and His Blue Boys - I Can Dish It (Can You Take It?)
TTITLE8=Claude Hopkins - It's Too Big Papa
TTITLE9=Bessie Jackson - Shave 'em Dry
TTITLE10=The Light Crust Dough Boys - Pussy, Pussy, Pussy
TTITLE11=Charlie Pickett - Let Me Squeeze Your Lemon
TTITLE12=Artist Unknown - Bye Bye Cherry
EXTD=
EXTT0=
EXTT1=
EXTT2=
EXTT3=
EXTT4=
EXTT5=
EXTT6=
EXTT7=
EXTT8=
EXTT9=
EXTT10=
EXTT11=
EXTT12=
PLAYORDER=
